/* XPM */
static char * bullet_xpm[] = {
"16 16 3 1",
" 	c None",
".	c #000000",
"+	c #D7D7D7",
"                ",
"                ",
"                ",
"                ",
"                ",
"                ",
"        ......  ",
"        .++++.  ",
"        .++++.  ",
"        .++++.  ",
"        .++++.  ",
"        ......  ",
"                ",
"                ",
"                ",
"                "};
