/* XPM */
static char * button_xpm[] = {
"21 21 7 1",
" 	c #898989",
".	c #555555",
"+	c #1F1F1F",
"@	c #474747",
"#	c #3A3A3A",
"$	c #333333",
"%	c #6B6B6B",
"                     ",
" ................... ",
" .+++++++++++++++++. ",
" .+@@@@@@@@@@@@@@@+. ",
" .+@#############@+. ",
" .+@#############@+. ",
" .+@#############@+. ",
" .+@#############@+. ",
" .+@#############@+. ",
" .+@#############@+. ",
" .+@#############@+. ",
" .+@#############@+. ",
" .+@#############@+. ",
" .+@#############@+. ",
" .+@#############@+. ",
" .+@#############@+. ",
" .+@#############@+. ",
" .+$$$$$$$$$$$$$$$+. ",
" .+++++++++++++++++. ",
"                     ",
"%%%%%%%%%%%%%%%%%%%%%"};
