/* XPM */
static char * closefcs_xpm[] = {
"21 21 22 1",
" 	c #898989",
".	c #555555",
"+	c #1F1F1F",
"@	c #5C5C5C",
"#	c #4E4E4E",
"$	c #474747",
"%	c #484848",
"&	c #333333",
"*	c #434343",
"=	c #353535",
"-	c #4B4B4B",
";	c #3A3A3A",
">	c #E7E7E7",
",	c #E6E6E6",
"'	c #1E1E1E",
")	c #373737",
"!	c #242424",
"~	c #151515",
"{	c #1A1A1A",
"]	c #181818",
"^	c #424242",
"/	c #6B6B6B",
"                     ",
".................... ",
"+++++++++++++++++++. ",
"@@@@@@@@@@@@@@@@@@+. ",
"#################$+. ",
"#################$+. ",
"#################$+. ",
"######%&&*=&-####$+. ",
"######;>,',>)####$+. ",
"######%!>~>!%####$+. ",
"#######*{>]^#####$+. ",
"######%!,~,!%####$+. ",
"######;>,',>)####$+. ",
"######%&&*=&-####$+. ",
"#################$+. ",
"#################$+. ",
"#################$+. ",
"$$$$$$$$$$$$$$$$$$+. ",
"+++++++++++++++++++. ",
"                     ",
"/////////////////////"};
