/* XPM */
static char * closepr_xpm[] = {
"21 21 8 1",
" 	c #898989",
".	c #555555",
"+	c #1F1F1F",
"@	c #5C5C5C",
"#	c #4E4E4E",
"$	c #474747",
"%	c #EEEEEE",
"&	c #6B6B6B",
"                     ",
".................... ",
"+++++++++++++++++++. ",
"@@@@@@@@@@@@@@@@@@+. ",
"#################$+. ",
"#################$+. ",
"#################$+. ",
"#################$+. ",
"#################$+. ",
"#######%%#%%#####$+. ",
"########%#%######$+. ",
"#########%#######$+. ",
"########%#%######$+. ",
"#######%%#%%#####$+. ",
"#################$+. ",
"#################$+. ",
"#################$+. ",
"$$$$$$$$$$$$$$$$$$+. ",
"+++++++++++++++++++. ",
"                     ",
"&&&&&&&&&&&&&&&&&&&&&"};
