/* XPM */
static char * minpr_xpm[] = {
"21 21 11 1",
" 	c #898989",
".	c #555555",
"+	c #1F1F1F",
"@	c #4A4A4A",
"#	c #5C5C5C",
"$	c #3E3E3E",
"%	c #4E4E4E",
"&	c #EEEEEE",
"*	c #393939",
"=	c #474747",
"-	c #6B6B6B",
"                     ",
".....................",
"+++++++++++++++++++++",
"@####################",
"$#%%%%%%%%%%%%%%%%%%%",
"$#%%%%%%%%%%%%%%%%%%%",
"$#%%%%%%%%%%%%%%%%%%%",
"$#%%%%%%%%%%%%%%%%%%%",
"$#%%%%%%%%%%%%%%%%%%%",
"$#%%%%%%%%%%%%%%%%%%%",
"$#%%%%%%%%%%%%%%%%%%%",
"$#%%%%%%%%%%%%%%%%%%%",
"$#%%%%%%%%%%%%%%%%%%%",
"$#%%%%%%%%&&&&&%%%%%%",
"$#%%%%%%%%%%%%%%%%%%%",
"$#%%%%%%%%%%%%%%%%%%%",
"$#%%%%%%%%%%%%%%%%%%%",
"*====================",
"+++++++++++++++++++++",
"                     ",
"---------------------"};
