/* XPM */
static char * minufcs_xpm[] = {
"21 21 19 1",
" 	c #898989",
".	c #555555",
"+	c #1F1F1F",
"@	c #414141",
"#	c #5C5C5C",
"$	c #373737",
"%	c #4E4E4E",
"&	c #484848",
"*	c #333333",
"=	c #313131",
"-	c #303030",
";	c #353535",
">	c #4B4B4B",
",	c #3A3A3A",
"'	c #E7E7E7",
")	c #E6E6E6",
"!	c #323232",
"~	c #474747",
"{	c #6B6B6B",
"                     ",
".....................",
"+++++++++++++++++++++",
"@####################",
"$#%%%%%%%%%%%%%%%%%%%",
"$#%%%%%%%%%%%%%%%%%%%",
"$#%%%%%%%%%%%%%%%%%%%",
"$#%%%%%%%%%%%%%%%%%%%",
"$#%%%%%%%%%%%%%%%%%%%",
"$#%%%%%%%%%%%%%%%%%%%",
"$#%%%%%%%%%%%%%%%%%%%",
"$#%%%%%%%&*=--;>%%%%%",
"$#%%%%%%%,')))'$%%%%%",
"$#%%%%%%%&*=--;>%%%%%",
"$#%%%%%%%%%%%%%%%%%%%",
"$#%%%%%%%%%%%%%%%%%%%",
"$#%%%%%%%%%%%%%%%%%%%",
"!~~~~~~~~~~~~~~~~~~~~",
"+++++++++++++++++++++",
"                     ",
"{{{{{{{{{{{{{{{{{{{{{"};
