/* XPM */
static char * selected_xpm[] = {
"16 16 3 1",
" 	c None",
".	c #F39B01",
"+	c #F8D495",
"                ",
"                ",
"                ",
"                ",
"                ",
"                ",
"                ",
"            ... ",
"            .+. ",
"            ... ",
"                ",
"                ",
"                ",
"                ",
"                ",
"                "};
