/* XPM */
static char * shadefcs_xpm[] = {
"21 21 12 1",
" 	c #898989",
".	c #555555",
"+	c #1F1F1F",
"@	c #5C5C5C",
"#	c #4E4E4E",
"$	c #484848",
"%	c #333333",
"&	c #4B4B4B",
"*	c #E6E6E6",
"=	c #323232",
"-	c #474747",
";	c #6B6B6B",
"                     ",
".....................",
"+++++++++++++++++++++",
"@@@@@@@@@@@@@@@@@@@@@",
"#####################",
"#####################",
"#####################",
"#####################",
"#####################",
"#########$%%&########",
"#########%**=########",
"#########%**=########",
"#########$%%$########",
"#####################",
"#####################",
"#####################",
"#####################",
"---------------------",
"+++++++++++++++++++++",
"                     ",
";;;;;;;;;;;;;;;;;;;;;"};
