/* XPM */
static char * stuckfcs_xpm[] = {
"21 21 16 1",
" 	c #898989",
".	c #555555",
"+	c #1F1F1F",
"@	c #5C5C5C",
"#	c #4E4E4E",
"$	c #484848",
"%	c #3A3A3A",
"&	c #242424",
"*	c #E7E7E7",
"=	c #333333",
"-	c #E6E6E6",
";	c #323232",
">	c #212121",
",	c #373737",
"'	c #474747",
")	c #6B6B6B",
"                     ",
".....................",
"+++++++++++++++++++++",
"@@@@@@@@@@@@@@@@@@@@@",
"#####################",
"#####################",
"#####################",
"#####################",
"#########$%$#########",
"########$&*&$########",
"########=---;########",
"########=---;########",
"########$>->$########",
"#########$,$#########",
"#####################",
"#####################",
"#####################",
"'''''''''''''''''''''",
"+++++++++++++++++++++",
"                     ",
")))))))))))))))))))))"};
