/* XPM */
static char * titlebar_xpm[] = {
"120 21 7 1",
" 	c #898989",
".	c #555555",
"+	c #1F1F1F",
"@	c #5C5C5C",
"#	c #4E4E4E",
"$	c #474747",
"%	c #6B6B6B",
"                                                                                                                        ",
" ...................................................................................................................... ",
" .++++++++++++++++++++++++++++++++++++++++++++++++++++++++++++++++++++++++++++++++++++++++++++++++++++++++++++++++++++. ",
" .+@@@@@@@@@@@@@@@@@@@@@@@@@@@@@@@@@@@@@@@@@@@@@@@@@@@@@@@@@@@@@@@@@@@@@@@@@@@@@@@@@@@@@@@@@@@@@@@@@@@@@@@@@@@@@@@@@@+. ",
" .+@################################################################################################################$+. ",
" .+@################################################################################################################$+. ",
" .+@################################################################################################################$+. ",
" .+@################################################################################################################$+. ",
" .+@################################################################################################################$+. ",
" .+@################################################################################################################$+. ",
" .+@################################################################################################################$+. ",
" .+@################################################################################################################$+. ",
" .+@################################################################################################################$+. ",
" .+@################################################################################################################$+. ",
" .+@################################################################################################################$+. ",
" .+@################################################################################################################$+. ",
" .+@################################################################################################################$+. ",
" .+$$$$$$$$$$$$$$$$$$$$$$$$$$$$$$$$$$$$$$$$$$$$$$$$$$$$$$$$$$$$$$$$$$$$$$$$$$$$$$$$$$$$$$$$$$$$$$$$$$$$$$$$$$$$$$$$$$+. ",
" .++++++++++++++++++++++++++++++++++++++++++++++++++++++++++++++++++++++++++++++++++++++++++++++++++++++++++++++++++++. ",
"                                                                                                                        ",
"%%%%%%%%%%%%%%%%%%%%%%%%%%%%%%%%%%%%%%%%%%%%%%%%%%%%%%%%%%%%%%%%%%%%%%%%%%%%%%%%%%%%%%%%%%%%%%%%%%%%%%%%%%%%%%%%%%%%%%%%"};
