/* XPM */
static char * toolbarfcs_xpm[] = {
"105 21 7 1",
" 	c #A5A5A5",
".	c #7B7B7B",
"+	c #494949",
"@	c #6F6F6F",
"#	c #636363",
"$	c #5D5D5D",
"%	c #8D8D8D",
"                                                                                                         ",
".........................................................................................................",
"+++++++++++++++++++++++++++++++++++++++++++++++++++++++++++++++++++++++++++++++++++++++++++++++++++++++++",
"+@@@@@@@@@@@@@@@@@@@@@@@@@@@@@@@@@@@@@@@@@@@@@@@@@@@@@@@@@@@@@@@@@@@@@@@@@@@@@@@@@@@@@@@@@@@@@@@@@@@@@@@+",
"+#######################################################################################################+",
"+#######################################################################################################+",
"+#######################################################################################################+",
"+#######################################################################################################+",
"+#######################################################################################################+",
"+#######################################################################################################+",
"+#######################################################################################################+",
"+#######################################################################################################+",
"+#######################################################################################################+",
"+#######################################################################################################+",
"+#######################################################################################################+",
"+#######################################################################################################+",
"+#######################################################################################################+",
"+$$$$$$$$$$$$$$$$$$$$$$$$$$$$$$$$$$$$$$$$$$$$$$$$$$$$$$$$$$$$$$$$$$$$$$$$$$$$$$$$$$$$$$$$$$$$$$$$$$$$$$$+",
"+++++++++++++++++++++++++++++++++++++++++++++++++++++++++++++++++++++++++++++++++++++++++++++++++++++++++",
"                                                                                                         ",
"%%%%%%%%%%%%%%%%%%%%%%%%%%%%%%%%%%%%%%%%%%%%%%%%%%%%%%%%%%%%%%%%%%%%%%%%%%%%%%%%%%%%%%%%%%%%%%%%%%%%%%%%%"};
