/* XPM */
static char * shadepr_xpm[] = {
"19 19 17 1",
" 	c #6D7075",
".	c #606165",
"+	c #5D5F62",
"@	c #5B5C60",
"#	c #5A5B5E",
"$	c #5A5C5F",
"%	c #58595C",
"&	c #595A5D",
"*	c #57585B",
"=	c #87B4D0",
"-	c #56585B",
";	c #56575A",
">	c #555659",
",	c #545558",
"'	c #525457",
")	c #535457",
"!	c #525356",
"                   ",
"...................",
"...................",
"+++++++++++++++++++",
"@@@@@@@@@@@@@@@@@@@",
"##$$$$$$$$########$",
"%%&&&&&&&&&%%%%%%%#",
"%%&&&&&&&&&%%%%%%%#",
"%%&&&&&&&&%%%%%%%%&",
"**%%%%%%%==*******&",
"--*******==-------%",
"--*********-------%",
"--********--------*",
";;--------;;;;;;;;*",
">>;;;;;;;;;>>>>>>>-",
",,>>>>>>>>,,,,,,,,>",
"''))))))))'''''''')",
"!!!!!!!!!!!!!!!!!!!",
"!!!!!!!!!!!!!!!!!!!"};
