/* XPM */
static char * tbarufcs_xpm[] = {
"19 19 16 1",
" 	c #6D7075",
".	c #4A4D53",
"+	c #484B51",
"@	c #47494F",
"#	c #46484D",
"$	c #46494E",
"%	c #44474C",
"&	c #45484D",
"*	c #44464B",
"=	c #43454B",
"-	c #43444A",
";	c #42444A",
">	c #424349",
",	c #404248",
"'	c #414248",
")	c #3F4147",
"                   ",
"...................",
"...................",
"+++++++++++++++++++",
"@@@@@@@@@@@@@@@@@@@",
"##$$$$$$$$########$",
"%%&&&&&&&&&%%%%%%%#",
"%%&&&&&&&&&%%%%%%%#",
"%%&&&&&&&&%%%%%%%%&",
"**%%%%%%%%********&",
"==*********=======%",
"==*********=======%",
"==********========*",
"--========--------*",
";;---------;;;;;;;=",
">>;;;;;;;;>>>>>>>>;",
",,'''''''',,,,,,,,'",
")))))))))))))))))))",
")))))))))))))))))))"};
