/* XPM */
static char * closefcs_xpm[] = {
"17 17 2 1",
" 	c #878787",
".	c #FFFFFF",
"                 ",
"                 ",
"                 ",
"                 ",
"                 ",
"                 ",
"      .. ..      ",
"      .....      ",
"       ...       ",
"      .....      ",
"      .. ..      ",
"                 ",
"                 ",
"                 ",
"                 ",
"                 ",
"                 "};
