/* XPM */
static char * maxfcs_xpm[] = {
"17 17 2 1",
" 	c #878787",
".	c #FFFFFF",
"                 ",
"                 ",
"                 ",
"                 ",
"                 ",
"                 ",
"      .....      ",
"      .....      ",
"      .   .      ",
"      .   .      ",
"      .....      ",
"                 ",
"                 ",
"                 ",
"                 ",
"                 ",
"                 "};
