/* XPM */
static char * menuiconpr_xpm[] = {
"17 17 2 1",
" 	c #878787",
".	c #FFFFFF",
"                 ",
"                 ",
"                 ",
"                 ",
"                 ",
"                 ",
"                 ",
"                 ",
"      .....      ",
"                 ",
"      .....      ",
"                 ",
"                 ",
"                 ",
"                 ",
"                 ",
"                 "};
