/* XPM */
static char * stuckufcs_xpm[] = {
"17 17 2 1",
" 	c #616161",
".	c #FFFFFF",
"                 ",
"                 ",
"                 ",
"                 ",
"                 ",
"     .......     ",
"     .......     ",
"     .......     ",
"     .......     ",
"     .......     ",
"     .......     ",
"     .......     ",
"                 ",
"                 ",
"                 ",
"                 ",
"                 "};
